<?xml version="1.0" encoding="UTF-8" standalone="no"?>
<!-- Created with Inkscape (http://www.inkscape.org/) -->

<svg
   id="svg5"
   version="1.1"
   viewBox="0 0 70 50"
   height="50mm"
   width="70mm"
   sodipodi:docname="Euler.svg"
   inkscape:version="1.2.2 (732a01da63, 2022-12-09)"
   xmlns:inkscape="http://www.inkscape.org/namespaces/inkscape"
   xmlns:sodipodi="http://sodipodi.sourceforge.net/DTD/sodipodi-0.dtd"
   xmlns="http://www.w3.org/2000/svg"
   xmlns:svg="http://www.w3.org/2000/svg">
  <sodipodi:namedview
     id="namedview7"
     pagecolor="#ffffff"
     bordercolor="#000000"
     borderopacity="0.25"
     inkscape:showpageshadow="2"
     inkscape:pageopacity="0.0"
     inkscape:pagecheckerboard="0"
     inkscape:deskcolor="#d1d1d1"
     inkscape:document-units="mm"
     showgrid="true"
     inkscape:zoom="5.1754899"
     inkscape:cx="99.797316"
     inkscape:cy="125.59198"
     inkscape:window-width="3840"
     inkscape:window-height="2054"
     inkscape:window-x="-11"
     inkscape:window-y="-11"
     inkscape:window-maximized="1"
     inkscape:current-layer="layer1"
     inkscape:lockguides="false">
    <inkscape:grid
       type="xygrid"
       id="grid6782"
       originx="0"
       originy="0" />
  </sodipodi:namedview>
  <defs
     id="defs2">
    <marker
       style="overflow:visible"
       id="TriangleStart"
       refX="0"
       refY="0"
       orient="auto-start-reverse"
       inkscape:stockid="TriangleStart"
       markerWidth="5.3244081"
       markerHeight="6.155385"
       viewBox="0 0 5.3244081 6.1553851"
       inkscape:isstock="true"
       inkscape:collect="always"
       preserveAspectRatio="xMidYMid">
      <path
         transform="scale(0.5)"
         style="fill:context-stroke;fill-rule:evenodd;stroke:context-stroke;stroke-width:1pt"
         d="M 5.77,0 -2.88,5 V -5 Z"
         id="path135" />
    </marker>
    <clipPath
       id="clipPath6359">
      <path
         clip-rule="nonzero"
         d="M 0,0 H 4 V 7.351563 H 0 Z m 0,0"
         id="path2500" />
    </clipPath>
    <clipPath
       id="clipPath2451">
      <path
         clip-rule="nonzero"
         d="m 0,12 h 8 v 1.683594 H 0 Z m 0,0"
         id="path3441" />
    </clipPath>
    <clipPath
       id="clipPath9961">
      <path
         clip-rule="nonzero"
         d="M 4,3 H 9 V 9.148438 H 4 Z m 0,0"
         id="path4282" />
    </clipPath>
    <clipPath
       id="clipPath1806">
      <path
         clip-rule="nonzero"
         d="M 4,3 H 9 V 9.976563 H 4 Z m 0,0"
         id="path7339" />
    </clipPath>
    <clipPath
       id="clipPath2132">
      <path
         clip-rule="nonzero"
         d="M 9,3 H 19 V 9.976563 H 9 Z m 0,0"
         id="path9149" />
    </clipPath>
    <clipPath
       id="clipPath8283">
      <path
         clip-rule="nonzero"
         d="m 7,1 h 9 V 9.214844 H 7 Z m 0,0"
         id="path2822" />
    </clipPath>
    <clipPath
       id="clipPath7166">
      <path
         clip-rule="nonzero"
         d="m 19,0 h 6.382813 V 9 H 19 Z m 0,0"
         id="path5055" />
    </clipPath>
    <clipPath
       id="clipPath6359-3">
      <path
         clip-rule="nonzero"
         d="M 0,0 H 4 V 7.351563 H 0 Z m 0,0"
         id="path2500-5" />
    </clipPath>
    <clipPath
       id="clipPath988">
      <path
         clip-rule="nonzero"
         d="m 0,12 h 8 v 1.683594 H 0 Z m 0,0"
         id="path7477" />
    </clipPath>
    <clipPath
       id="clipPath3390">
      <path
         clip-rule="nonzero"
         d="m 0,12 h 8 v 1.683594 H 0 Z m 0,0"
         id="path3422" />
    </clipPath>
    <clipPath
       id="clipPath1165">
      <path
         clip-rule="nonzero"
         d="m 0,12 h 8 v 1.683594 H 0 Z m 0,0"
         id="path1927" />
    </clipPath>
    <clipPath
       id="clipPath3842">
      <path
         clip-rule="nonzero"
         d="m 0,12 h 8 v 1.683594 H 0 Z m 0,0"
         id="path85" />
    </clipPath>
    <clipPath
       id="clipPath6255">
      <path
         clip-rule="nonzero"
         d="m 0,12 h 8 v 1.683594 H 0 Z m 0,0"
         id="path5902" />
    </clipPath>
    <clipPath
       id="clipPath7394">
      <path
         clip-rule="nonzero"
         d="M 4,3 H 9 V 9.148438 H 4 Z m 0,0"
         id="path1281" />
    </clipPath>
    <clipPath
       id="clipPath1051">
      <path
         clip-rule="nonzero"
         d="M 4,3 H 9 V 9.976563 H 4 Z m 0,0"
         id="path2005" />
    </clipPath>
    <clipPath
       id="clipPath6801">
      <path
         clip-rule="nonzero"
         d="M 9,3 H 19 V 9.976563 H 9 Z m 0,0"
         id="path8592" />
    </clipPath>
  </defs>
  <g
     inkscape:label="Layer 1"
     inkscape:groupmode="layer"
     id="layer1">
    <path
       style="fill:none;stroke:#000000;stroke-width:0.5;stroke-linecap:round;stroke-linejoin:round;stroke-dasharray:none;stroke-opacity:1;marker-start:url(#TriangleStart);marker-end:url(#TriangleStart);paint-order:fill markers stroke"
       d="M 23.884836,5.4531978 V 44.688077 h 43.203629"
       id="path8290" />
    <path
       style="fill:none;stroke:#000000;stroke-width:0.5;stroke-linecap:round;stroke-linejoin:round;stroke-dasharray:none;stroke-opacity:1;paint-order:fill markers stroke"
       d="m 24.062501,39.20424 c 0,0 2.869624,-23.312498 12.913306,-23.312498 10.043685,0 2.869624,5.379807 14.348121,5.379807 11.478494,0 5.739249,-3.586539 17.21774,-5.379807"
       id="path8555" />
    <g
       inkscape:label=""
       transform="translate(68.201867,45.793216)"
       id="g9828">
      <g
         clip-path="url(#clipPath6359)"
         id="g17"
         transform="matrix(0.352778,0,0,0.352778,-0.0937066,0.040834)">
        <g
           fill="#000000"
           fill-opacity="1"
           id="g15">
          <g
             id="use13"
             transform="translate(0,7.3530002)">
            <path
               d="M 2.40625,-4.8125 H 3.5 c 0.234375,0 0.34375,0 0.34375,-0.203125 0,-0.140625 -0.0625,-0.140625 -0.3125,-0.140625 H 2.484375 l 0.4375,-1.734375 C 2.96875,-7.0625 2.96875,-7.09375 2.96875,-7.171875 c 0,-0.1875 -0.140625,-0.296875 -0.296875,-0.296875 -0.109375,0 -0.375,0.03125 -0.46875,0.421875 l -0.46875,1.890625 h -1.125 c -0.234375,0 -0.34375,0 -0.34375,0.234375 0,0.109375 0.078125,0.109375 0.3125,0.109375 h 1.0625 L 0.84375,-1.65625 c -0.09375,0.421875 -0.125,0.546875 -0.125,0.703125 0,0.5625 0.390625,1.078125 1.0625,1.078125 1.203125,0 1.859375,-1.75 1.859375,-1.828125 0,-0.078125 -0.0625,-0.109375 -0.125,-0.109375 -0.03125,0 -0.078125,0 -0.09375,0.046875 C 3.40625,-1.75 3.390625,-1.75 3.3125,-1.546875 c -0.25,0.59375 -0.796875,1.421875 -1.5,1.421875 -0.359375,0 -0.375,-0.296875 -0.375,-0.5625 0,0 0,-0.234375 0.03125,-0.375 z m 0,0"
               id="path23" />
          </g>
        </g>
      </g>
    </g>
    <g
       inkscape:label=""
       transform="translate(10.870197,0.28488283)"
       id="g10657">
      <g
         id="g24322"
         transform="translate(0.52916628,0.52916635)">
        <g
           fill="#000000"
           fill-opacity="1"
           id="g31"
           transform="matrix(0.352778,0,0,0.352778,0,9.7028e-4)">
          <g
             id="use29"
             transform="translate(0,8.9659996)">
            <path
               d="m 5.328125,-4.8125 c 0.234375,0 0.34375,0 0.34375,-0.21875 0,-0.125 -0.109375,-0.125 -0.3125,-0.125 H 4.390625 C 4.609375,-6.390625 4.78125,-7.234375 4.875,-7.609375 c 0.078125,-0.296875 0.328125,-0.5625 0.640625,-0.5625 0.25,0 0.5,0.109375 0.609375,0.21875 -0.453125,0.046875 -0.609375,0.390625 -0.609375,0.59375 0,0.234375 0.1875,0.375 0.40625,0.375 0.25,0 0.609375,-0.203125 0.609375,-0.65625 0,-0.5 -0.5,-0.78125 -1.03125,-0.78125 -0.515625,0 -1.015625,0.390625 -1.25,0.859375 -0.21875,0.421875 -0.34375,0.84375 -0.609375,2.40625 h -0.8125 c -0.21875,0 -0.34375,0 -0.34375,0.21875 0,0.125 0.078125,0.125 0.3125,0.125 H 3.5625 C 3.34375,-3.6875 2.859375,-0.984375 2.578125,0.28125 2.375,1.328125 2.203125,2.203125 1.609375,2.203125 1.5625,2.203125 1.21875,2.203125 1,1.96875 1.609375,1.921875 1.609375,1.40625 1.609375,1.390625 1.609375,1.140625 1.4375,1 1.203125,1 0.96875,1 0.609375,1.203125 0.609375,1.65625 c 0,0.515625 0.53125,0.78125 1,0.78125 1.21875,0 1.71875,-2.1875 1.84375,-2.78125 C 3.671875,-1.265625 4.25,-4.453125 4.3125,-4.8125 Z m 0,0"
               id="path63" />
          </g>
        </g>
        <g
           clip-path="url(#clipPath2451)"
           id="g35"
           transform="matrix(0.352778,0,0,0.352778,0,9.7028e-4)">
          <path
             fill="none"
             stroke-width="0.478"
             stroke-linecap="butt"
             stroke-linejoin="miter"
             stroke="#000000"
             stroke-opacity="1"
             stroke-miterlimit="10"
             d="M 0,1.5625e-4 H 7.046875"
             transform="matrix(1,0,0,-1,0,12.965)"
             id="path33" />
        </g>
        <g
           fill="#000000"
           fill-opacity="1"
           id="g39"
           transform="matrix(0.352778,0,0,0.352778,0,9.7028e-4)">
          <g
             id="use37"
             transform="translate(7.046,8.9659996)">
            <path
               d="m 3.890625,2.90625 c 0,-0.03125 0,-0.0625 -0.203125,-0.265625 C 2.484375,1.4375 1.8125,-0.53125 1.8125,-2.96875 c 0,-2.328125 0.5625,-4.328125 1.953125,-5.734375 0.125,-0.109375 0.125,-0.125 0.125,-0.171875 0,-0.0625 -0.0625,-0.09375 -0.109375,-0.09375 -0.15625,0 -1.140625,0.859375 -1.71875,2.03125 -0.609375,1.21875 -0.890625,2.484375 -0.890625,3.96875 0,1.0625 0.171875,2.484375 0.78125,3.75 C 2.671875,2.21875 3.640625,3 3.78125,3 3.828125,3 3.890625,2.96875 3.890625,2.90625 Z m 0,0"
               id="path67" />
          </g>
        </g>
        <g
           fill="#000000"
           fill-opacity="1"
           id="g43"
           transform="matrix(0.352778,0,0,0.352778,0,9.7028e-4)">
          <g
             id="use41"
             transform="translate(11.599,8.9659996)">
            <path
               d="m 5.671875,-4.875 c -0.390625,0.0625 -0.53125,0.359375 -0.53125,0.578125 0,0.296875 0.21875,0.390625 0.390625,0.390625 0.359375,0 0.609375,-0.3125 0.609375,-0.640625 0,-0.5 -0.578125,-0.71875 -1.078125,-0.71875 -0.71875,0 -1.125,0.71875 -1.234375,0.9375 -0.28125,-0.890625 -1.015625,-0.9375 -1.234375,-0.9375 -1.21875,0 -1.859375,1.5625 -1.859375,1.828125 0,0.046875 0.046875,0.109375 0.125,0.109375 0.09375,0 0.125,-0.078125 0.140625,-0.125 0.40625,-1.328125 1.21875,-1.578125 1.5625,-1.578125 0.53125,0 0.640625,0.5 0.640625,0.78125 0,0.265625 -0.078125,0.546875 -0.21875,1.125 L 2.578125,-1.5 c -0.171875,0.71875 -0.515625,1.375 -1.15625,1.375 -0.0625,0 -0.359375,0 -0.609375,-0.15625 C 1.25,-0.359375 1.34375,-0.71875 1.34375,-0.859375 1.34375,-1.09375 1.15625,-1.25 0.9375,-1.25 c -0.296875,0 -0.609375,0.265625 -0.609375,0.640625 0,0.5 0.5625,0.734375 1.078125,0.734375 0.578125,0 0.984375,-0.453125 1.234375,-0.953125 C 2.828125,-0.125 3.4375,0.125 3.875,0.125 5.09375,0.125 5.734375,-1.453125 5.734375,-1.703125 5.734375,-1.765625 5.6875,-1.8125 5.625,-1.8125 5.515625,-1.8125 5.5,-1.75 5.46875,-1.65625 5.140625,-0.609375 4.453125,-0.125 3.90625,-0.125 3.484375,-0.125 3.265625,-0.4375 3.265625,-0.921875 3.265625,-1.1875 3.3125,-1.375 3.5,-2.15625 L 3.921875,-3.796875 C 4.09375,-4.5 4.5,-5.03125 5.0625,-5.03125 c 0.015625,0 0.359375,0 0.609375,0.15625 z m 0,0"
               id="path71" />
          </g>
        </g>
        <path
           fill="none"
           stroke-width="0.478"
           stroke-linecap="butt"
           stroke-linejoin="miter"
           stroke="#000000"
           stroke-opacity="1"
           stroke-miterlimit="10"
           d="M 11.597656,10.643375 H 18.25"
           id="path45"
           transform="scale(0.352778)" />
        <g
           fill="#000000"
           fill-opacity="1"
           id="g49"
           transform="matrix(0.352778,0,0,0.352778,0,9.7028e-4)">
          <g
             id="use47"
             transform="translate(18.250999,8.9659996)">
            <path
               d="m 2.328125,0.046875 c 0,-0.6875 -0.21875,-1.203125 -0.71875,-1.203125 -0.375,0 -0.5625,0.3125 -0.5625,0.578125 C 1.046875,-0.328125 1.21875,0 1.625,0 1.78125,0 1.90625,-0.046875 2.015625,-0.15625 2.046875,-0.171875 2.0625,-0.171875 2.0625,-0.171875 c 0.03125,0 0.03125,0.15625 0.03125,0.21875 C 2.09375,0.4375 2.015625,1.21875 1.328125,2 1.1875,2.140625 1.1875,2.15625 1.1875,2.1875 c 0,0.0625 0.0625,0.125 0.125,0.125 0.09375,0 1.015625,-0.890625 1.015625,-2.265625 z m 0,0"
               id="path75" />
          </g>
        </g>
        <g
           fill="#000000"
           fill-opacity="1"
           id="g53"
           transform="matrix(0.352778,0,0,0.352778,0,9.7028e-4)">
          <g
             id="use51"
             transform="translate(23.499332,8.9659996)">
            <path
               d="M 2.40625,-4.8125 H 3.5 c 0.234375,0 0.34375,0 0.34375,-0.203125 0,-0.140625 -0.0625,-0.140625 -0.3125,-0.140625 H 2.484375 l 0.4375,-1.734375 C 2.96875,-7.0625 2.96875,-7.09375 2.96875,-7.171875 c 0,-0.1875 -0.140625,-0.296875 -0.296875,-0.296875 -0.109375,0 -0.375,0.03125 -0.46875,0.421875 l -0.46875,1.890625 h -1.125 c -0.234375,0 -0.34375,0 -0.34375,0.234375 0,0.109375 0.078125,0.109375 0.3125,0.109375 h 1.0625 L 0.84375,-1.65625 c -0.09375,0.421875 -0.125,0.546875 -0.125,0.703125 0,0.5625 0.390625,1.078125 1.0625,1.078125 1.203125,0 1.859375,-1.75 1.859375,-1.828125 0,-0.078125 -0.0625,-0.109375 -0.125,-0.109375 -0.03125,0 -0.078125,0 -0.09375,0.046875 C 3.40625,-1.75 3.390625,-1.75 3.3125,-1.546875 c -0.25,0.59375 -0.796875,1.421875 -1.5,1.421875 -0.359375,0 -0.375,-0.296875 -0.375,-0.5625 0,0 0,-0.234375 0.03125,-0.375 z m 0,0"
               id="path79" />
          </g>
        </g>
        <g
           fill="#000000"
           fill-opacity="1"
           id="g57"
           transform="matrix(0.352778,0,0,0.352778,0,9.7028e-4)">
          <g
             id="use55"
             transform="translate(27.722,8.9659996)">
            <path
               d="M 3.375,-2.96875 C 3.375,-3.890625 3.25,-5.359375 2.578125,-6.75 1.875,-8.1875 0.890625,-8.96875 0.765625,-8.96875 c -0.046875,0 -0.109375,0.03125 -0.109375,0.09375 0,0.046875 0,0.0625 0.203125,0.265625 1.203125,1.203125 1.859375,3.1875 1.859375,5.625 0,2.3125 -0.5625,4.3125 -1.9375,5.71875 C 0.65625,2.84375 0.65625,2.875 0.65625,2.90625 0.65625,2.96875 0.71875,3 0.765625,3 0.921875,3 1.90625,2.140625 2.484375,0.96875 3.09375,-0.25 3.375,-1.546875 3.375,-2.96875 Z m 0,0"
               id="path83" />
          </g>
        </g>
      </g>
    </g>
    <path
       style="fill:none;stroke:#000000;stroke-width:0.5;stroke-linecap:round;stroke-linejoin:round;stroke-dasharray:0.5, 1.5;stroke-dashoffset:0;stroke-opacity:1;paint-order:fill markers stroke"
       d="M 37.041667,16.108259 V 44.745908"
       id="path12988" />
    <path
       style="fill:none;stroke:#000000;stroke-width:0.499999;stroke-linecap:round;stroke-linejoin:round;stroke-dasharray:0.499999, 1.50001;stroke-dashoffset:0;stroke-opacity:1;paint-order:fill markers stroke"
       d="M 50.270833,44.530875 V 21.402205"
       id="path12990" />
    <path
       style="fill:none;stroke:#000000;stroke-width:0.499999;stroke-linecap:round;stroke-linejoin:round;stroke-dasharray:0.499999, 1.5;stroke-dashoffset:0;stroke-opacity:1;paint-order:fill markers stroke"
       d="m 24.077085,21.197992 h 26.19375"
       id="path12992" />
    <path
       style="fill:none;stroke:#000000;stroke-width:0.499999;stroke-linecap:round;stroke-linejoin:round;stroke-dasharray:0.499999, 1.5;stroke-dashoffset:0;stroke-opacity:1;paint-order:fill markers stroke"
       d="M 23.943554,15.906325 H 36.910615"
       id="path12992-5" />
    <rect
       style="fill:#000070;fill-opacity:0.227488;stroke:none;stroke-width:0.5;stroke-linecap:round;stroke-linejoin:miter;stroke-dasharray:0.5, 1.5;stroke-dashoffset:0;stroke-opacity:1;paint-order:fill markers stroke"
       id="rect19058"
       width="13.229167"
       height="29.104166"
       x="37.041668"
       y="15.641739"
       ry="2.1518806e-06" />
    <g
       inkscape:label=""
       transform="translate(0.51092767,18.839008)"
       id="g21278">
      <g
         fill="#000000"
         fill-opacity="1"
         id="g42"
         transform="matrix(0.352778,0,0,0.352778,0,9.7028e-4)">
        <g
           id="use40"
           transform="translate(0,8.9659996)">
          <path
             d="m 5.328125,-4.8125 c 0.234375,0 0.34375,0 0.34375,-0.21875 0,-0.125 -0.109375,-0.125 -0.3125,-0.125 H 4.390625 C 4.609375,-6.390625 4.78125,-7.234375 4.875,-7.609375 c 0.078125,-0.296875 0.328125,-0.5625 0.640625,-0.5625 0.25,0 0.5,0.109375 0.609375,0.21875 -0.453125,0.046875 -0.609375,0.390625 -0.609375,0.59375 0,0.234375 0.1875,0.375 0.40625,0.375 0.25,0 0.609375,-0.203125 0.609375,-0.65625 0,-0.5 -0.5,-0.78125 -1.03125,-0.78125 -0.515625,0 -1.015625,0.390625 -1.25,0.859375 -0.21875,0.421875 -0.34375,0.84375 -0.609375,2.40625 h -0.8125 c -0.21875,0 -0.34375,0 -0.34375,0.21875 0,0.125 0.078125,0.125 0.3125,0.125 H 3.5625 C 3.34375,-3.6875 2.859375,-0.984375 2.578125,0.28125 2.375,1.328125 2.203125,2.203125 1.609375,2.203125 1.5625,2.203125 1.21875,2.203125 1,1.96875 1.609375,1.921875 1.609375,1.40625 1.609375,1.390625 1.609375,1.140625 1.4375,1 1.203125,1 0.96875,1 0.609375,1.203125 0.609375,1.65625 c 0,0.515625 0.53125,0.78125 1,0.78125 1.21875,0 1.71875,-2.1875 1.84375,-2.78125 C 3.671875,-1.265625 4.25,-4.453125 4.3125,-4.8125 Z m 0,0"
             id="path94" />
        </g>
      </g>
      <g
         clip-path="url(#clipPath3842)"
         id="g46"
         transform="matrix(0.352778,0,0,0.352778,0,9.7028e-4)">
        <path
           fill="none"
           stroke-width="0.478"
           stroke-linecap="butt"
           stroke-linejoin="miter"
           stroke="#000000"
           stroke-opacity="1"
           stroke-miterlimit="10"
           d="M 0,1.5625e-4 H 7.046875"
           transform="matrix(1,0,0,-1,0,12.965)"
           id="path44" />
      </g>
      <g
         fill="#000000"
         fill-opacity="1"
         id="g50"
         transform="matrix(0.352778,0,0,0.352778,0,9.7028e-4)">
        <g
           id="use48"
           transform="translate(7.046,8.9659996)">
          <path
             d="m 3.890625,2.90625 c 0,-0.03125 0,-0.0625 -0.203125,-0.265625 C 2.484375,1.4375 1.8125,-0.53125 1.8125,-2.96875 c 0,-2.328125 0.5625,-4.328125 1.953125,-5.734375 0.125,-0.109375 0.125,-0.125 0.125,-0.171875 0,-0.0625 -0.0625,-0.09375 -0.109375,-0.09375 -0.15625,0 -1.140625,0.859375 -1.71875,2.03125 -0.609375,1.21875 -0.890625,2.484375 -0.890625,3.96875 0,1.0625 0.171875,2.484375 0.78125,3.75 C 2.671875,2.21875 3.640625,3 3.78125,3 3.828125,3 3.890625,2.96875 3.890625,2.90625 Z m 0,0"
             id="path98" />
        </g>
      </g>
      <g
         fill="#000000"
         fill-opacity="1"
         id="g54"
         transform="matrix(0.352778,0,0,0.352778,0,9.7028e-4)">
        <g
           id="use52"
           transform="translate(11.599,8.9659996)">
          <path
             d="m 5.671875,-4.875 c -0.390625,0.0625 -0.53125,0.359375 -0.53125,0.578125 0,0.296875 0.21875,0.390625 0.390625,0.390625 0.359375,0 0.609375,-0.3125 0.609375,-0.640625 0,-0.5 -0.578125,-0.71875 -1.078125,-0.71875 -0.71875,0 -1.125,0.71875 -1.234375,0.9375 -0.28125,-0.890625 -1.015625,-0.9375 -1.234375,-0.9375 -1.21875,0 -1.859375,1.5625 -1.859375,1.828125 0,0.046875 0.046875,0.109375 0.125,0.109375 0.09375,0 0.125,-0.078125 0.140625,-0.125 0.40625,-1.328125 1.21875,-1.578125 1.5625,-1.578125 0.53125,0 0.640625,0.5 0.640625,0.78125 0,0.265625 -0.078125,0.546875 -0.21875,1.125 L 2.578125,-1.5 c -0.171875,0.71875 -0.515625,1.375 -1.15625,1.375 -0.0625,0 -0.359375,0 -0.609375,-0.15625 C 1.25,-0.359375 1.34375,-0.71875 1.34375,-0.859375 1.34375,-1.09375 1.15625,-1.25 0.9375,-1.25 c -0.296875,0 -0.609375,0.265625 -0.609375,0.640625 0,0.5 0.5625,0.734375 1.078125,0.734375 0.578125,0 0.984375,-0.453125 1.234375,-0.953125 C 2.828125,-0.125 3.4375,0.125 3.875,0.125 5.09375,0.125 5.734375,-1.453125 5.734375,-1.703125 5.734375,-1.765625 5.6875,-1.8125 5.625,-1.8125 5.515625,-1.8125 5.5,-1.75 5.46875,-1.65625 5.140625,-0.609375 4.453125,-0.125 3.90625,-0.125 3.484375,-0.125 3.265625,-0.4375 3.265625,-0.921875 3.265625,-1.1875 3.3125,-1.375 3.5,-2.15625 L 3.921875,-3.796875 C 4.09375,-4.5 4.5,-5.03125 5.0625,-5.03125 c 0.015625,0 0.359375,0 0.609375,0.15625 z m 0,0"
             id="path21235" />
        </g>
      </g>
      <path
         fill="none"
         stroke-width="0.478"
         stroke-linecap="butt"
         stroke-linejoin="miter"
         stroke="#000000"
         stroke-opacity="1"
         stroke-miterlimit="10"
         d="M 11.597656,10.643375 H 18.25"
         id="path56"
         transform="scale(0.352778)" />
      <g
         fill="#000000"
         fill-opacity="1"
         id="g60"
         transform="matrix(0.352778,0,0,0.352778,0,9.7028e-4)">
        <g
           id="use58"
           transform="translate(18.250999,11.856)">
          <path
             d="m 2.328125,-5.296875 c 0,-0.015625 0.03125,-0.109375 0.03125,-0.125 0,-0.03125 -0.03125,-0.109375 -0.125,-0.109375 -0.03125,0 -0.28125,0.03125 -0.46875,0.046875 l -0.4375,0.03125 C 1.140625,-5.4375 1.0625,-5.4375 1.0625,-5.296875 c 0,0.125 0.109375,0.125 0.21875,0.125 0.375,0 0.375,0.046875 0.375,0.109375 0,0.03125 0,0.046875 -0.03125,0.1875 l -1.140625,4.53125 c -0.03125,0.125 -0.03125,0.171875 -0.03125,0.171875 0,0.140625 0.109375,0.25 0.265625,0.25 0.265625,0 0.328125,-0.25 0.359375,-0.359375 0.078125,-0.34375 0.296875,-1.1875 0.375,-1.515625 0.4375,0.046875 0.984375,0.1875 0.984375,0.65625 0,0.03125 0,0.078125 -0.015625,0.15625 -0.03125,0.09375 -0.046875,0.21875 -0.046875,0.25 0,0.46875 0.34375,0.8125 0.8125,0.8125 0.328125,0 0.546875,-0.25 0.640625,-0.390625 C 4.03125,-0.609375 4.15625,-1.09375 4.15625,-1.140625 4.15625,-1.21875 4.09375,-1.25 4.03125,-1.25 c -0.09375,0 -0.109375,0.0625 -0.140625,0.203125 -0.109375,0.375 -0.3125,0.90625 -0.6875,0.90625 -0.203125,0 -0.25,-0.171875 -0.25,-0.390625 0,-0.109375 0,-0.203125 0.046875,-0.390625 0,-0.03125 0.03125,-0.15625 0.03125,-0.234375 0,-0.65625 -0.8125,-0.796875 -1.21875,-0.859375 C 2.109375,-2.1875 2.375,-2.46875 2.46875,-2.5625 2.90625,-3 3.265625,-3.296875 3.65625,-3.296875 c 0.09375,0 0.1875,0.03125 0.25,0.109375 C 3.484375,-3.125 3.484375,-2.75 3.484375,-2.75 c 0,0.171875 0.140625,0.296875 0.3125,0.296875 0.21875,0 0.453125,-0.171875 0.453125,-0.5 0,-0.28125 -0.1875,-0.5625 -0.59375,-0.5625 -0.453125,0 -0.875,0.359375 -1.328125,0.8125 -0.46875,0.453125 -0.65625,0.53125 -0.796875,0.59375 z m 0,0"
             id="path21240" />
        </g>
      </g>
      <g
         fill="#000000"
         fill-opacity="1"
         id="g66"
         transform="matrix(0.352778,0,0,0.352778,0,9.7028e-4)">
        <g
           id="use62"
           transform="translate(22.872,11.856)">
          <path
             d="M 3.46875,-1.8125 H 5.8125 c 0.109375,0 0.296875,0 0.296875,-0.171875 0,-0.1875 -0.1875,-0.1875 -0.296875,-0.1875 H 3.46875 V -4.53125 c 0,-0.109375 0,-0.28125 -0.171875,-0.28125 -0.1875,0 -0.1875,0.171875 -0.1875,0.28125 v 2.359375 H 0.75 c -0.109375,0 -0.28125,0 -0.28125,0.1875 0,0.171875 0.171875,0.171875 0.28125,0.171875 h 2.359375 v 2.359375 c 0,0.109375 0,0.28125 0.1875,0.28125 0.171875,0 0.171875,-0.171875 0.171875,-0.28125 z m 0,0"
             id="path21244" />
        </g>
        <g
           id="use64"
           transform="translate(29.45849,11.856)">
          <path
             d="m 2.5,-5.078125 c 0,-0.21875 -0.015625,-0.21875 -0.234375,-0.21875 -0.328125,0.3125 -0.75,0.5 -1.5,0.5 v 0.265625 c 0.21875,0 0.640625,0 1.109375,-0.203125 v 4.078125 c 0,0.296875 -0.03125,0.390625 -0.78125,0.390625 H 0.8125 V 0 c 0.328125,-0.03125 1.015625,-0.03125 1.375,-0.03125 0.359375,0 1.046875,0 1.375,0.03125 V -0.265625 H 3.28125 c -0.75,0 -0.78125,-0.09375 -0.78125,-0.390625 z m 0,0"
             id="path21247" />
        </g>
      </g>
      <g
         fill="#000000"
         fill-opacity="1"
         id="g70"
         transform="matrix(0.352778,0,0,0.352778,0,9.7028e-4)">
        <g
           id="use68"
           transform="translate(34.191002,8.9659996)">
          <path
             d="m 2.328125,0.046875 c 0,-0.6875 -0.21875,-1.203125 -0.71875,-1.203125 -0.375,0 -0.5625,0.3125 -0.5625,0.578125 C 1.046875,-0.328125 1.21875,0 1.625,0 1.78125,0 1.90625,-0.046875 2.015625,-0.15625 2.046875,-0.171875 2.0625,-0.171875 2.0625,-0.171875 c 0.03125,0 0.03125,0.15625 0.03125,0.21875 C 2.09375,0.4375 2.015625,1.21875 1.328125,2 1.1875,2.140625 1.1875,2.15625 1.1875,2.1875 c 0,0.0625 0.0625,0.125 0.125,0.125 0.09375,0 1.015625,-0.890625 1.015625,-2.265625 z m 0,0"
             id="path21251" />
        </g>
      </g>
      <g
         fill="#000000"
         fill-opacity="1"
         id="g74"
         transform="matrix(0.352778,0,0,0.352778,0,9.7028e-4)">
        <g
           id="use72"
           transform="translate(39.439335,8.9659996)">
          <path
             d="M 2.40625,-4.8125 H 3.5 c 0.234375,0 0.34375,0 0.34375,-0.203125 0,-0.140625 -0.0625,-0.140625 -0.3125,-0.140625 H 2.484375 l 0.4375,-1.734375 C 2.96875,-7.0625 2.96875,-7.09375 2.96875,-7.171875 c 0,-0.1875 -0.140625,-0.296875 -0.296875,-0.296875 -0.109375,0 -0.375,0.03125 -0.46875,0.421875 l -0.46875,1.890625 h -1.125 c -0.234375,0 -0.34375,0 -0.34375,0.234375 0,0.109375 0.078125,0.109375 0.3125,0.109375 h 1.0625 L 0.84375,-1.65625 c -0.09375,0.421875 -0.125,0.546875 -0.125,0.703125 0,0.5625 0.390625,1.078125 1.0625,1.078125 1.203125,0 1.859375,-1.75 1.859375,-1.828125 0,-0.078125 -0.0625,-0.109375 -0.125,-0.109375 -0.03125,0 -0.078125,0 -0.09375,0.046875 C 3.40625,-1.75 3.390625,-1.75 3.3125,-1.546875 c -0.25,0.59375 -0.796875,1.421875 -1.5,1.421875 -0.359375,0 -0.375,-0.296875 -0.375,-0.5625 0,0 0,-0.234375 0.03125,-0.375 z m 0,0"
             id="path21255" />
        </g>
      </g>
      <g
         fill="#000000"
         fill-opacity="1"
         id="g78"
         transform="matrix(0.352778,0,0,0.352778,0,9.7028e-4)">
        <g
           id="use76"
           transform="translate(43.662998,10.76)">
          <path
             d="m 2.328125,-5.296875 c 0,-0.015625 0.03125,-0.109375 0.03125,-0.125 0,-0.03125 -0.03125,-0.109375 -0.125,-0.109375 -0.03125,0 -0.28125,0.03125 -0.46875,0.046875 l -0.4375,0.03125 C 1.140625,-5.4375 1.0625,-5.4375 1.0625,-5.296875 c 0,0.125 0.109375,0.125 0.21875,0.125 0.375,0 0.375,0.046875 0.375,0.109375 0,0.03125 0,0.046875 -0.03125,0.1875 l -1.140625,4.53125 c -0.03125,0.125 -0.03125,0.171875 -0.03125,0.171875 0,0.140625 0.109375,0.25 0.265625,0.25 0.265625,0 0.328125,-0.25 0.359375,-0.359375 0.078125,-0.34375 0.296875,-1.1875 0.375,-1.515625 0.4375,0.046875 0.984375,0.1875 0.984375,0.65625 0,0.03125 0,0.078125 -0.015625,0.15625 -0.03125,0.09375 -0.046875,0.21875 -0.046875,0.25 0,0.46875 0.34375,0.8125 0.8125,0.8125 0.328125,0 0.546875,-0.25 0.640625,-0.390625 C 4.03125,-0.609375 4.15625,-1.09375 4.15625,-1.140625 4.15625,-1.21875 4.09375,-1.25 4.03125,-1.25 c -0.09375,0 -0.109375,0.0625 -0.140625,0.203125 -0.109375,0.375 -0.3125,0.90625 -0.6875,0.90625 -0.203125,0 -0.25,-0.171875 -0.25,-0.390625 0,-0.109375 0,-0.203125 0.046875,-0.390625 0,-0.03125 0.03125,-0.15625 0.03125,-0.234375 0,-0.65625 -0.8125,-0.796875 -1.21875,-0.859375 C 2.109375,-2.1875 2.375,-2.46875 2.46875,-2.5625 2.90625,-3 3.265625,-3.296875 3.65625,-3.296875 c 0.09375,0 0.1875,0.03125 0.25,0.109375 C 3.484375,-3.125 3.484375,-2.75 3.484375,-2.75 c 0,0.171875 0.140625,0.296875 0.3125,0.296875 0.21875,0 0.453125,-0.171875 0.453125,-0.5 0,-0.28125 -0.1875,-0.5625 -0.59375,-0.5625 -0.453125,0 -0.875,0.359375 -1.328125,0.8125 -0.46875,0.453125 -0.65625,0.53125 -0.796875,0.59375 z m 0,0"
             id="path21259" />
        </g>
      </g>
      <g
         fill="#000000"
         fill-opacity="1"
         id="g21270"
         transform="matrix(0.352778,0,0,0.352778,0,9.7028e-4)">
        <g
           id="use80"
           transform="translate(48.284,10.76)">
          <path
             d="M 3.46875,-1.8125 H 5.8125 c 0.109375,0 0.296875,0 0.296875,-0.171875 0,-0.1875 -0.1875,-0.1875 -0.296875,-0.1875 H 3.46875 V -4.53125 c 0,-0.109375 0,-0.28125 -0.171875,-0.28125 -0.1875,0 -0.1875,0.171875 -0.1875,0.28125 v 2.359375 H 0.75 c -0.109375,0 -0.28125,0 -0.28125,0.1875 0,0.171875 0.171875,0.171875 0.28125,0.171875 h 2.359375 v 2.359375 c 0,0.109375 0,0.28125 0.1875,0.28125 0.171875,0 0.171875,-0.171875 0.171875,-0.28125 z m 0,0"
             id="path21263" />
        </g>
        <g
           id="g21268"
           transform="translate(54.870491,10.76)">
          <path
             d="m 2.5,-5.078125 c 0,-0.21875 -0.015625,-0.21875 -0.234375,-0.21875 -0.328125,0.3125 -0.75,0.5 -1.5,0.5 v 0.265625 c 0.21875,0 0.640625,0 1.109375,-0.203125 v 4.078125 c 0,0.296875 -0.03125,0.390625 -0.78125,0.390625 H 0.8125 V 0 c 0.328125,-0.03125 1.015625,-0.03125 1.375,-0.03125 0.359375,0 1.046875,0 1.375,0.03125 V -0.265625 H 3.28125 c -0.75,0 -0.78125,-0.09375 -0.78125,-0.390625 z m 0,0"
             id="path21266" />
        </g>
      </g>
      <g
         fill="#000000"
         fill-opacity="1"
         id="g21276"
         transform="matrix(0.352778,0,0,0.352778,0,9.7028e-4)">
        <g
           id="g21274"
           transform="translate(59.603001,8.9659996)">
          <path
             d="M 3.375,-2.96875 C 3.375,-3.890625 3.25,-5.359375 2.578125,-6.75 1.875,-8.1875 0.890625,-8.96875 0.765625,-8.96875 c -0.046875,0 -0.109375,0.03125 -0.109375,0.09375 0,0.046875 0,0.0625 0.203125,0.265625 1.203125,1.203125 1.859375,3.1875 1.859375,5.625 0,2.3125 -0.5625,4.3125 -1.9375,5.71875 C 0.65625,2.84375 0.65625,2.875 0.65625,2.90625 0.65625,2.96875 0.71875,3 0.765625,3 0.921875,3 1.90625,2.140625 2.484375,0.96875 3.09375,-0.25 3.375,-1.546875 3.375,-2.96875 Z m 0,0"
             id="path21272" />
        </g>
      </g>
    </g>
    <g
       inkscape:label=""
       transform="translate(8.0097687,13.537111)"
       id="g22407">
      <g
         fill="#000000"
         fill-opacity="1"
         id="g22361"
         transform="matrix(0.352778,0,0,0.352778,0,9.7028e-4)">
        <g
           id="g22359"
           transform="translate(0,8.9659996)">
          <path
             d="m 5.328125,-4.8125 c 0.234375,0 0.34375,0 0.34375,-0.21875 0,-0.125 -0.109375,-0.125 -0.3125,-0.125 H 4.390625 C 4.609375,-6.390625 4.78125,-7.234375 4.875,-7.609375 c 0.078125,-0.296875 0.328125,-0.5625 0.640625,-0.5625 0.25,0 0.5,0.109375 0.609375,0.21875 -0.453125,0.046875 -0.609375,0.390625 -0.609375,0.59375 0,0.234375 0.1875,0.375 0.40625,0.375 0.25,0 0.609375,-0.203125 0.609375,-0.65625 0,-0.5 -0.5,-0.78125 -1.03125,-0.78125 -0.515625,0 -1.015625,0.390625 -1.25,0.859375 -0.21875,0.421875 -0.34375,0.84375 -0.609375,2.40625 h -0.8125 c -0.21875,0 -0.34375,0 -0.34375,0.21875 0,0.125 0.078125,0.125 0.3125,0.125 H 3.5625 C 3.34375,-3.6875 2.859375,-0.984375 2.578125,0.28125 2.375,1.328125 2.203125,2.203125 1.609375,2.203125 1.5625,2.203125 1.21875,2.203125 1,1.96875 1.609375,1.921875 1.609375,1.40625 1.609375,1.390625 1.609375,1.140625 1.4375,1 1.203125,1 0.96875,1 0.609375,1.203125 0.609375,1.65625 c 0,0.515625 0.53125,0.78125 1,0.78125 1.21875,0 1.71875,-2.1875 1.84375,-2.78125 C 3.671875,-1.265625 4.25,-4.453125 4.3125,-4.8125 Z m 0,0"
             id="path22357" />
        </g>
      </g>
      <g
         clip-path="url(#clipPath6255)"
         id="g22365"
         transform="matrix(0.352778,0,0,0.352778,0,9.7028e-4)">
        <path
           fill="none"
           stroke-width="0.478"
           stroke-linecap="butt"
           stroke-linejoin="miter"
           stroke="#000000"
           stroke-opacity="1"
           stroke-miterlimit="10"
           d="M 0,1.5625e-4 H 7.046875"
           transform="matrix(1,0,0,-1,0,12.965)"
           id="path22363" />
      </g>
      <g
         fill="#000000"
         fill-opacity="1"
         id="g22371"
         transform="matrix(0.352778,0,0,0.352778,0,9.7028e-4)">
        <g
           id="g22369"
           transform="translate(7.046,8.9659996)">
          <path
             d="m 3.890625,2.90625 c 0,-0.03125 0,-0.0625 -0.203125,-0.265625 C 2.484375,1.4375 1.8125,-0.53125 1.8125,-2.96875 c 0,-2.328125 0.5625,-4.328125 1.953125,-5.734375 0.125,-0.109375 0.125,-0.125 0.125,-0.171875 0,-0.0625 -0.0625,-0.09375 -0.109375,-0.09375 -0.15625,0 -1.140625,0.859375 -1.71875,2.03125 -0.609375,1.21875 -0.890625,2.484375 -0.890625,3.96875 0,1.0625 0.171875,2.484375 0.78125,3.75 C 2.671875,2.21875 3.640625,3 3.78125,3 3.828125,3 3.890625,2.96875 3.890625,2.90625 Z m 0,0"
             id="path22367" />
        </g>
      </g>
      <g
         fill="#000000"
         fill-opacity="1"
         id="g22377"
         transform="matrix(0.352778,0,0,0.352778,0,9.7028e-4)">
        <g
           id="g22375"
           transform="translate(11.599,8.9659996)">
          <path
             d="m 5.671875,-4.875 c -0.390625,0.0625 -0.53125,0.359375 -0.53125,0.578125 0,0.296875 0.21875,0.390625 0.390625,0.390625 0.359375,0 0.609375,-0.3125 0.609375,-0.640625 0,-0.5 -0.578125,-0.71875 -1.078125,-0.71875 -0.71875,0 -1.125,0.71875 -1.234375,0.9375 -0.28125,-0.890625 -1.015625,-0.9375 -1.234375,-0.9375 -1.21875,0 -1.859375,1.5625 -1.859375,1.828125 0,0.046875 0.046875,0.109375 0.125,0.109375 0.09375,0 0.125,-0.078125 0.140625,-0.125 0.40625,-1.328125 1.21875,-1.578125 1.5625,-1.578125 0.53125,0 0.640625,0.5 0.640625,0.78125 0,0.265625 -0.078125,0.546875 -0.21875,1.125 L 2.578125,-1.5 c -0.171875,0.71875 -0.515625,1.375 -1.15625,1.375 -0.0625,0 -0.359375,0 -0.609375,-0.15625 C 1.25,-0.359375 1.34375,-0.71875 1.34375,-0.859375 1.34375,-1.09375 1.15625,-1.25 0.9375,-1.25 c -0.296875,0 -0.609375,0.265625 -0.609375,0.640625 0,0.5 0.5625,0.734375 1.078125,0.734375 0.578125,0 0.984375,-0.453125 1.234375,-0.953125 C 2.828125,-0.125 3.4375,0.125 3.875,0.125 5.09375,0.125 5.734375,-1.453125 5.734375,-1.703125 5.734375,-1.765625 5.6875,-1.8125 5.625,-1.8125 5.515625,-1.8125 5.5,-1.75 5.46875,-1.65625 5.140625,-0.609375 4.453125,-0.125 3.90625,-0.125 3.484375,-0.125 3.265625,-0.4375 3.265625,-0.921875 3.265625,-1.1875 3.3125,-1.375 3.5,-2.15625 L 3.921875,-3.796875 C 4.09375,-4.5 4.5,-5.03125 5.0625,-5.03125 c 0.015625,0 0.359375,0 0.609375,0.15625 z m 0,0"
             id="path22373" />
        </g>
      </g>
      <path
         fill="none"
         stroke-width="0.478"
         stroke-linecap="butt"
         stroke-linejoin="miter"
         stroke="#000000"
         stroke-opacity="1"
         stroke-miterlimit="10"
         d="M 11.597656,10.643375 H 18.25"
         id="path22379"
         transform="scale(0.352778)" />
      <g
         fill="#000000"
         fill-opacity="1"
         id="g22385"
         transform="matrix(0.352778,0,0,0.352778,0,9.7028e-4)">
        <g
           id="g22383"
           transform="translate(18.250999,11.856)">
          <path
             d="m 2.328125,-5.296875 c 0,-0.015625 0.03125,-0.109375 0.03125,-0.125 0,-0.03125 -0.03125,-0.109375 -0.125,-0.109375 -0.03125,0 -0.28125,0.03125 -0.46875,0.046875 l -0.4375,0.03125 C 1.140625,-5.4375 1.0625,-5.4375 1.0625,-5.296875 c 0,0.125 0.109375,0.125 0.21875,0.125 0.375,0 0.375,0.046875 0.375,0.109375 0,0.03125 0,0.046875 -0.03125,0.1875 l -1.140625,4.53125 c -0.03125,0.125 -0.03125,0.171875 -0.03125,0.171875 0,0.140625 0.109375,0.25 0.265625,0.25 0.265625,0 0.328125,-0.25 0.359375,-0.359375 0.078125,-0.34375 0.296875,-1.1875 0.375,-1.515625 0.4375,0.046875 0.984375,0.1875 0.984375,0.65625 0,0.03125 0,0.078125 -0.015625,0.15625 -0.03125,0.09375 -0.046875,0.21875 -0.046875,0.25 0,0.46875 0.34375,0.8125 0.8125,0.8125 0.328125,0 0.546875,-0.25 0.640625,-0.390625 C 4.03125,-0.609375 4.15625,-1.09375 4.15625,-1.140625 4.15625,-1.21875 4.09375,-1.25 4.03125,-1.25 c -0.09375,0 -0.109375,0.0625 -0.140625,0.203125 -0.109375,0.375 -0.3125,0.90625 -0.6875,0.90625 -0.203125,0 -0.25,-0.171875 -0.25,-0.390625 0,-0.109375 0,-0.203125 0.046875,-0.390625 0,-0.03125 0.03125,-0.15625 0.03125,-0.234375 0,-0.65625 -0.8125,-0.796875 -1.21875,-0.859375 C 2.109375,-2.1875 2.375,-2.46875 2.46875,-2.5625 2.90625,-3 3.265625,-3.296875 3.65625,-3.296875 c 0.09375,0 0.1875,0.03125 0.25,0.109375 C 3.484375,-3.125 3.484375,-2.75 3.484375,-2.75 c 0,0.171875 0.140625,0.296875 0.3125,0.296875 0.21875,0 0.453125,-0.171875 0.453125,-0.5 0,-0.28125 -0.1875,-0.5625 -0.59375,-0.5625 -0.453125,0 -0.875,0.359375 -1.328125,0.8125 -0.46875,0.453125 -0.65625,0.53125 -0.796875,0.59375 z m 0,0"
             id="path22381" />
        </g>
      </g>
      <g
         fill="#000000"
         fill-opacity="1"
         id="g22391"
         transform="matrix(0.352778,0,0,0.352778,0,9.7028e-4)">
        <g
           id="g22389"
           transform="translate(23.371,8.9659996)">
          <path
             d="m 2.328125,0.046875 c 0,-0.6875 -0.21875,-1.203125 -0.71875,-1.203125 -0.375,0 -0.5625,0.3125 -0.5625,0.578125 C 1.046875,-0.328125 1.21875,0 1.625,0 1.78125,0 1.90625,-0.046875 2.015625,-0.15625 2.046875,-0.171875 2.0625,-0.171875 2.0625,-0.171875 c 0.03125,0 0.03125,0.15625 0.03125,0.21875 C 2.09375,0.4375 2.015625,1.21875 1.328125,2 1.1875,2.140625 1.1875,2.15625 1.1875,2.1875 c 0,0.0625 0.0625,0.125 0.125,0.125 0.09375,0 1.015625,-0.890625 1.015625,-2.265625 z m 0,0"
             id="path22387" />
        </g>
      </g>
      <g
         fill="#000000"
         fill-opacity="1"
         id="g22397"
         transform="matrix(0.352778,0,0,0.352778,0,9.7028e-4)">
        <g
           id="g22395"
           transform="translate(28.619333,8.9659996)">
          <path
             d="M 2.40625,-4.8125 H 3.5 c 0.234375,0 0.34375,0 0.34375,-0.203125 0,-0.140625 -0.0625,-0.140625 -0.3125,-0.140625 H 2.484375 l 0.4375,-1.734375 C 2.96875,-7.0625 2.96875,-7.09375 2.96875,-7.171875 c 0,-0.1875 -0.140625,-0.296875 -0.296875,-0.296875 -0.109375,0 -0.375,0.03125 -0.46875,0.421875 l -0.46875,1.890625 h -1.125 c -0.234375,0 -0.34375,0 -0.34375,0.234375 0,0.109375 0.078125,0.109375 0.3125,0.109375 h 1.0625 L 0.84375,-1.65625 c -0.09375,0.421875 -0.125,0.546875 -0.125,0.703125 0,0.5625 0.390625,1.078125 1.0625,1.078125 1.203125,0 1.859375,-1.75 1.859375,-1.828125 0,-0.078125 -0.0625,-0.109375 -0.125,-0.109375 -0.03125,0 -0.078125,0 -0.09375,0.046875 C 3.40625,-1.75 3.390625,-1.75 3.3125,-1.546875 c -0.25,0.59375 -0.796875,1.421875 -1.5,1.421875 -0.359375,0 -0.375,-0.296875 -0.375,-0.5625 0,0 0,-0.234375 0.03125,-0.375 z m 0,0"
             id="path22393" />
        </g>
      </g>
      <g
         fill="#000000"
         fill-opacity="1"
         id="g22402"
         transform="matrix(0.352778,0,0,0.352778,0,9.7028e-4)">
        <g
           id="g22400"
           transform="translate(32.841999,10.76)">
          <path
             d="m 2.328125,-5.296875 c 0,-0.015625 0.03125,-0.109375 0.03125,-0.125 0,-0.03125 -0.03125,-0.109375 -0.125,-0.109375 -0.03125,0 -0.28125,0.03125 -0.46875,0.046875 l -0.4375,0.03125 C 1.140625,-5.4375 1.0625,-5.4375 1.0625,-5.296875 c 0,0.125 0.109375,0.125 0.21875,0.125 0.375,0 0.375,0.046875 0.375,0.109375 0,0.03125 0,0.046875 -0.03125,0.1875 l -1.140625,4.53125 c -0.03125,0.125 -0.03125,0.171875 -0.03125,0.171875 0,0.140625 0.109375,0.25 0.265625,0.25 0.265625,0 0.328125,-0.25 0.359375,-0.359375 0.078125,-0.34375 0.296875,-1.1875 0.375,-1.515625 0.4375,0.046875 0.984375,0.1875 0.984375,0.65625 0,0.03125 0,0.078125 -0.015625,0.15625 -0.03125,0.09375 -0.046875,0.21875 -0.046875,0.25 0,0.46875 0.34375,0.8125 0.8125,0.8125 0.328125,0 0.546875,-0.25 0.640625,-0.390625 C 4.03125,-0.609375 4.15625,-1.09375 4.15625,-1.140625 4.15625,-1.21875 4.09375,-1.25 4.03125,-1.25 c -0.09375,0 -0.109375,0.0625 -0.140625,0.203125 -0.109375,0.375 -0.3125,0.90625 -0.6875,0.90625 -0.203125,0 -0.25,-0.171875 -0.25,-0.390625 0,-0.109375 0,-0.203125 0.046875,-0.390625 0,-0.03125 0.03125,-0.15625 0.03125,-0.234375 0,-0.65625 -0.8125,-0.796875 -1.21875,-0.859375 C 2.109375,-2.1875 2.375,-2.46875 2.46875,-2.5625 2.90625,-3 3.265625,-3.296875 3.65625,-3.296875 c 0.09375,0 0.1875,0.03125 0.25,0.109375 C 3.484375,-3.125 3.484375,-2.75 3.484375,-2.75 c 0,0.171875 0.140625,0.296875 0.3125,0.296875 0.21875,0 0.453125,-0.171875 0.453125,-0.5 0,-0.28125 -0.1875,-0.5625 -0.59375,-0.5625 -0.453125,0 -0.875,0.359375 -1.328125,0.8125 -0.46875,0.453125 -0.65625,0.53125 -0.796875,0.59375 z m 0,0"
             id="path99" />
        </g>
      </g>
      <g
         fill="#000000"
         fill-opacity="1"
         id="g69"
         transform="matrix(0.352778,0,0,0.352778,0,9.7028e-4)">
        <g
           id="use67"
           transform="translate(37.962002,8.9659996)">
          <path
             d="M 3.375,-2.96875 C 3.375,-3.890625 3.25,-5.359375 2.578125,-6.75 1.875,-8.1875 0.890625,-8.96875 0.765625,-8.96875 c -0.046875,0 -0.109375,0.03125 -0.109375,0.09375 0,0.046875 0,0.0625 0.203125,0.265625 1.203125,1.203125 1.859375,3.1875 1.859375,5.625 0,2.3125 -0.5625,4.3125 -1.9375,5.71875 C 0.65625,2.84375 0.65625,2.875 0.65625,2.90625 0.65625,2.96875 0.71875,3 0.765625,3 0.921875,3 1.90625,2.140625 2.484375,0.96875 3.09375,-0.25 3.375,-1.546875 3.375,-2.96875 Z m 0,0"
             id="path103" />
        </g>
      </g>
    </g>
    <g
       inkscape:label=""
       transform="translate(36.451867,45.793216)"
       id="g23494">
      <g
         fill="#000000"
         fill-opacity="1"
         id="g19"
         transform="matrix(0.352778,0,0,0.352778,-0.0937066,0.0404812)">
        <g
           id="use17"
           transform="translate(0,7.3540001)">
          <path
             d="M 2.40625,-4.8125 H 3.5 c 0.234375,0 0.34375,0 0.34375,-0.203125 0,-0.140625 -0.0625,-0.140625 -0.3125,-0.140625 H 2.484375 l 0.4375,-1.734375 C 2.96875,-7.0625 2.96875,-7.09375 2.96875,-7.171875 c 0,-0.1875 -0.140625,-0.296875 -0.296875,-0.296875 -0.109375,0 -0.375,0.03125 -0.46875,0.421875 l -0.46875,1.890625 h -1.125 c -0.234375,0 -0.34375,0 -0.34375,0.234375 0,0.109375 0.078125,0.109375 0.3125,0.109375 h 1.0625 L 0.84375,-1.65625 c -0.09375,0.421875 -0.125,0.546875 -0.125,0.703125 0,0.5625 0.390625,1.078125 1.0625,1.078125 1.203125,0 1.859375,-1.75 1.859375,-1.828125 0,-0.078125 -0.0625,-0.109375 -0.125,-0.109375 -0.03125,0 -0.078125,0 -0.09375,0.046875 C 3.40625,-1.75 3.390625,-1.75 3.3125,-1.546875 c -0.25,0.59375 -0.796875,1.421875 -1.5,1.421875 -0.359375,0 -0.375,-0.296875 -0.375,-0.5625 0,0 0,-0.234375 0.03125,-0.375 z m 0,0"
             id="path31" />
        </g>
      </g>
      <g
         clip-path="url(#clipPath7394)"
         id="g23492"
         transform="matrix(0.352778,0,0,0.352778,-0.0937066,0.0404812)">
        <g
           fill="#000000"
           fill-opacity="1"
           id="g23">
          <g
             id="use21"
             transform="translate(4.2270002,9.1470003)">
            <path
               d="m 2.328125,-5.296875 c 0,-0.015625 0.03125,-0.109375 0.03125,-0.125 0,-0.03125 -0.03125,-0.109375 -0.125,-0.109375 -0.03125,0 -0.28125,0.03125 -0.46875,0.046875 l -0.4375,0.03125 C 1.140625,-5.4375 1.0625,-5.4375 1.0625,-5.296875 c 0,0.125 0.109375,0.125 0.21875,0.125 0.375,0 0.375,0.046875 0.375,0.109375 0,0.03125 0,0.046875 -0.03125,0.1875 l -1.140625,4.53125 c -0.03125,0.125 -0.03125,0.171875 -0.03125,0.171875 0,0.140625 0.109375,0.25 0.265625,0.25 0.265625,0 0.328125,-0.25 0.359375,-0.359375 0.078125,-0.34375 0.296875,-1.1875 0.375,-1.515625 0.4375,0.046875 0.984375,0.1875 0.984375,0.65625 0,0.03125 0,0.078125 -0.015625,0.15625 -0.03125,0.09375 -0.046875,0.21875 -0.046875,0.25 0,0.46875 0.34375,0.8125 0.8125,0.8125 0.328125,0 0.546875,-0.25 0.640625,-0.390625 C 4.03125,-0.609375 4.15625,-1.09375 4.15625,-1.140625 4.15625,-1.21875 4.09375,-1.25 4.03125,-1.25 c -0.09375,0 -0.109375,0.0625 -0.140625,0.203125 -0.109375,0.375 -0.3125,0.90625 -0.6875,0.90625 -0.203125,0 -0.25,-0.171875 -0.25,-0.390625 0,-0.109375 0,-0.203125 0.046875,-0.390625 0,-0.03125 0.03125,-0.15625 0.03125,-0.234375 0,-0.65625 -0.8125,-0.796875 -1.21875,-0.859375 C 2.109375,-2.1875 2.375,-2.46875 2.46875,-2.5625 2.90625,-3 3.265625,-3.296875 3.65625,-3.296875 c 0.09375,0 0.1875,0.03125 0.25,0.109375 C 3.484375,-3.125 3.484375,-2.75 3.484375,-2.75 c 0,0.171875 0.140625,0.296875 0.3125,0.296875 0.21875,0 0.453125,-0.171875 0.453125,-0.5 0,-0.28125 -0.1875,-0.5625 -0.59375,-0.5625 -0.453125,0 -0.875,0.359375 -1.328125,0.8125 -0.46875,0.453125 -0.65625,0.53125 -0.796875,0.59375 z m 0,0"
               id="path35" />
          </g>
        </g>
      </g>
    </g>
    <g
       inkscape:label=""
       transform="translate(47.80399,45.854863)"
       id="g23855">
      <g
         fill="#000000"
         fill-opacity="1"
         id="g23840"
         transform="matrix(0.352778,0,0,0.352778,-0.0937066,0.040834)">
        <g
           id="g23838"
           transform="translate(0,7.3530002)">
          <path
             d="M 2.40625,-4.8125 H 3.5 c 0.234375,0 0.34375,0 0.34375,-0.203125 0,-0.140625 -0.0625,-0.140625 -0.3125,-0.140625 H 2.484375 l 0.4375,-1.734375 C 2.96875,-7.0625 2.96875,-7.09375 2.96875,-7.171875 c 0,-0.1875 -0.140625,-0.296875 -0.296875,-0.296875 -0.109375,0 -0.375,0.03125 -0.46875,0.421875 l -0.46875,1.890625 h -1.125 c -0.234375,0 -0.34375,0 -0.34375,0.234375 0,0.109375 0.078125,0.109375 0.3125,0.109375 h 1.0625 L 0.84375,-1.65625 c -0.09375,0.421875 -0.125,0.546875 -0.125,0.703125 0,0.5625 0.390625,1.078125 1.0625,1.078125 1.203125,0 1.859375,-1.75 1.859375,-1.828125 0,-0.078125 -0.0625,-0.109375 -0.125,-0.109375 -0.03125,0 -0.078125,0 -0.09375,0.046875 C 3.40625,-1.75 3.390625,-1.75 3.3125,-1.546875 c -0.25,0.59375 -0.796875,1.421875 -1.5,1.421875 -0.359375,0 -0.375,-0.296875 -0.375,-0.5625 0,0 0,-0.234375 0.03125,-0.375 z m 0,0"
             id="path49" />
        </g>
      </g>
      <g
         clip-path="url(#clipPath1051)"
         id="g23845"
         transform="matrix(0.352778,0,0,0.352778,-0.0937066,0.040834)">
        <g
           fill="#000000"
           fill-opacity="1"
           id="g33">
          <g
             id="use31"
             transform="translate(4.2270002,9.1470003)">
            <path
               d="m 2.328125,-5.296875 c 0,-0.015625 0.03125,-0.109375 0.03125,-0.125 0,-0.03125 -0.03125,-0.109375 -0.125,-0.109375 -0.03125,0 -0.28125,0.03125 -0.46875,0.046875 l -0.4375,0.03125 C 1.140625,-5.4375 1.0625,-5.4375 1.0625,-5.296875 c 0,0.125 0.109375,0.125 0.21875,0.125 0.375,0 0.375,0.046875 0.375,0.109375 0,0.03125 0,0.046875 -0.03125,0.1875 l -1.140625,4.53125 c -0.03125,0.125 -0.03125,0.171875 -0.03125,0.171875 0,0.140625 0.109375,0.25 0.265625,0.25 0.265625,0 0.328125,-0.25 0.359375,-0.359375 0.078125,-0.34375 0.296875,-1.1875 0.375,-1.515625 0.4375,0.046875 0.984375,0.1875 0.984375,0.65625 0,0.03125 0,0.078125 -0.015625,0.15625 -0.03125,0.09375 -0.046875,0.21875 -0.046875,0.25 0,0.46875 0.34375,0.8125 0.8125,0.8125 0.328125,0 0.546875,-0.25 0.640625,-0.390625 C 4.03125,-0.609375 4.15625,-1.09375 4.15625,-1.140625 4.15625,-1.21875 4.09375,-1.25 4.03125,-1.25 c -0.09375,0 -0.109375,0.0625 -0.140625,0.203125 -0.109375,0.375 -0.3125,0.90625 -0.6875,0.90625 -0.203125,0 -0.25,-0.171875 -0.25,-0.390625 0,-0.109375 0,-0.203125 0.046875,-0.390625 0,-0.03125 0.03125,-0.15625 0.03125,-0.234375 0,-0.65625 -0.8125,-0.796875 -1.21875,-0.859375 C 2.109375,-2.1875 2.375,-2.46875 2.46875,-2.5625 2.90625,-3 3.265625,-3.296875 3.65625,-3.296875 c 0.09375,0 0.1875,0.03125 0.25,0.109375 C 3.484375,-3.125 3.484375,-2.75 3.484375,-2.75 c 0,0.171875 0.140625,0.296875 0.3125,0.296875 0.21875,0 0.453125,-0.171875 0.453125,-0.5 0,-0.28125 -0.1875,-0.5625 -0.59375,-0.5625 -0.453125,0 -0.875,0.359375 -1.328125,0.8125 -0.46875,0.453125 -0.65625,0.53125 -0.796875,0.59375 z m 0,0"
               id="path53" />
          </g>
        </g>
      </g>
      <g
         clip-path="url(#clipPath6801)"
         id="g23853"
         transform="matrix(0.352778,0,0,0.352778,-0.0937066,0.040834)">
        <g
           fill="#000000"
           fill-opacity="1"
           id="g41">
          <g
             id="g23848"
             transform="translate(8.849,9.1470003)">
            <path
               d="M 3.46875,-1.8125 H 5.8125 c 0.109375,0 0.296875,0 0.296875,-0.171875 0,-0.1875 -0.1875,-0.1875 -0.296875,-0.1875 H 3.46875 V -4.53125 c 0,-0.109375 0,-0.28125 -0.171875,-0.28125 -0.1875,0 -0.1875,0.171875 -0.1875,0.28125 v 2.359375 H 0.75 c -0.109375,0 -0.28125,0 -0.28125,0.1875 0,0.171875 0.171875,0.171875 0.28125,0.171875 h 2.359375 v 2.359375 c 0,0.109375 0,0.28125 0.1875,0.28125 0.171875,0 0.171875,-0.171875 0.171875,-0.28125 z m 0,0"
               id="path57" />
          </g>
          <g
             id="use39"
             transform="translate(15.435491,9.1470003)">
            <path
               d="m 2.5,-5.078125 c 0,-0.21875 -0.015625,-0.21875 -0.234375,-0.21875 -0.328125,0.3125 -0.75,0.5 -1.5,0.5 v 0.265625 c 0.21875,0 0.640625,0 1.109375,-0.203125 v 4.078125 c 0,0.296875 -0.03125,0.390625 -0.78125,0.390625 H 0.8125 V 0 c 0.328125,-0.03125 1.015625,-0.03125 1.375,-0.03125 0.359375,0 1.046875,0 1.375,0.03125 V -0.265625 H 3.28125 c -0.75,0 -0.78125,-0.09375 -0.78125,-0.390625 z m 0,0"
               id="path61" />
          </g>
        </g>
      </g>
    </g>
  </g>
</svg>
